<svg width="241" height="118" viewBox="0 0 241 118" fill="none" xmlns="http://www.w3.org/2000/svg">
<path d="M14.125 59.125C14.125 31.5108 36.5108 9.125 64.125 9.125H240.125V117.125H14.125V59.125Z" fill="#F2F4F8"/>
<g opacity="0.4" filter="url(#filter0_f_80002_4895)">
<circle cx="47.125" cy="47.125" r="33" fill="#552390"/>
</g>
<circle cx="47.125" cy="42.125" r="33" fill="#552390"/>
<path d="M57.0376 31.5044C57.214 31.7816 56.9119 32.1046 56.5915 32.0317C55.9648 31.8451 55.2715 31.7517 54.5648 31.7517H50.2234C49.9766 31.7517 49.7443 31.6357 49.596 31.4384L48.0981 29.4451C47.9103 29.179 48.0878 28.7917 48.4135 28.7917H52.0848C54.1661 28.7917 55.9995 29.8727 57.0376 31.5044Z" fill="white"/>
<path d="M57.9787 34.8451C57.4053 34.4317 56.752 34.1251 56.0453 33.9517C55.5653 33.8184 55.072 33.7517 54.5653 33.7517H49.6053C48.832 33.7517 48.7787 33.6851 48.3653 33.1384L46.4987 30.6584C45.632 29.4984 44.952 28.7917 42.7787 28.7917H39.6853C36.432 28.7917 33.792 31.4317 33.792 34.6851V49.5651C33.792 52.8184 36.432 55.4584 39.6853 55.4584H54.5653C57.8187 55.4584 60.4587 52.8184 60.4587 49.5651V39.6451C60.4587 37.6584 59.4853 35.9117 57.9787 34.8451ZM50.312 47.9117H43.9253C43.4053 47.9117 43.0053 47.4984 43.0053 46.9784C43.0053 46.4717 43.4053 46.0451 43.9253 46.0451H50.312C50.832 46.0451 51.2453 46.4717 51.2453 46.9784C51.2453 47.4984 50.832 47.9117 50.312 47.9117Z" fill="white"/>
<mask id="mask0_80002_4895" style="mask-type:alpha" maskUnits="userSpaceOnUse" x="14" y="31" width="227" height="87">
<rect x="14.125" y="31.125" width="226" height="86" fill="#D9D9D9"/>
</mask>
<g mask="url(#mask0_80002_4895)">
<path d="M14.2575 131.806V113.229C13.4523 104.596 15.4226 87.4703 45.961 85.338C74.0092 83.3796 79.9784 79.4261 94.6779 53.6553C106.778 32.4422 125.251 32.0404 142.168 31.6725C144.384 31.6243 146.574 31.5767 148.719 31.4829C160.088 30.986 197.206 30.9268 222.625 31.1253C251.125 31.1248 240.125 28.8348 240.125 39.6255V223.412C240.125 234.299 231.271 243.125 220.35 243.125H33.9C22.9786 243.125 14.125 234.299 14.125 223.412V131.806H14.2575Z" fill="white"/>
</g>
<defs>
<filter id="filter0_f_80002_4895" x="0" y="0" width="94.25" height="94.25" filterUnits="userSpaceOnUse" color-interpolation-filters="sRGB">
<feFlood flood-opacity="0" result="BackgroundImageFix"/>
<feBlend mode="normal" in="SourceGraphic" in2="BackgroundImageFix" result="shape"/>
<feGaussianBlur stdDeviation="7.0625" result="effect1_foregroundBlur_80002_4895"/>
</filter>
</defs>
</svg>
